<svg width="42" height="42" viewBox="0 0 42 42" fill="none" xmlns="http://www.w3.org/2000/svg">
<g clip-path="url(#clip0_8286_17232)">
<path d="M39.0135 14.4784C39.0135 8.29504 30.9518 3.29004 21.0002 3.29004C11.0485 3.29004 2.98682 8.29504 2.98682 14.4784C2.98682 16.8467 4.17682 19.04 6.19515 20.8484V37.1234H35.2451V21.315C37.5901 19.425 39.0018 17.0567 39.0018 14.49L39.0135 14.4784Z" fill="#AD755C"/>
<path d="M19.9739 13.0462L13.0195 20.0006C12.3224 20.6977 12.3224 21.8279 13.0195 22.5249C13.7166 23.222 14.8468 23.222 15.5439 22.5249L22.4983 15.5705C23.1954 14.8735 23.1954 13.7433 22.4983 13.0462C21.8012 12.3491 20.671 12.3491 19.9739 13.0462Z" fill="#936451"/>
<path d="M25.906 20.2406L18.9516 27.195C18.2546 27.8921 18.2546 29.0223 18.9516 29.7193C19.6487 30.4164 20.7789 30.4164 21.476 29.7193L28.4304 22.7649C29.1275 22.0679 29.1275 20.9377 28.4304 20.2406C27.7333 19.5435 26.6031 19.5435 25.906 20.2406Z" fill="#936451"/>
</g>
<defs>
<clipPath id="clip0_8286_17232">
<rect width="42" height="42" fill="white"/>
</clipPath>
</defs>
</svg>
