<svg width="42" height="42" viewBox="0 0 42 42" fill="none" xmlns="http://www.w3.org/2000/svg">
<path d="M27.0083 17.1501H38.8266C40.32 17.1501 41.5333 18.3634 41.5333 19.8568V19.8801C41.5333 21.3734 40.32 22.5868 38.8266 22.5868H27.0083V17.1384V17.1501Z" fill="#75818E"/>
<path d="M2.5083 17.15H34.2883V21.245C34.2883 30.0066 27.1716 37.1233 18.41 37.1233C9.6483 37.1233 2.53163 30.0066 2.53163 21.245V17.15H2.5083Z" fill="#8D97A3"/>
<path d="M11.5616 15.715H8.84326V10.57L11.5499 8.38836V4.81836H14.2799V9.69503L11.5616 11.8767V15.715Z" fill="#75818E"/>
<path d="M19.3902 15.715H16.6719V10.57L19.3785 8.38836V4.81836H22.1085V9.69503L19.3902 11.8767V15.715Z" fill="#75818E"/>
<path d="M27.2066 15.715H24.4766V10.57L27.2299 8.37669V4.81836H29.9482V9.69503L27.2066 11.8767V15.715Z" fill="#75818E"/>
</svg>
