<svg width="42" height="42" viewBox="0 0 42 42" fill="none" xmlns="http://www.w3.org/2000/svg">
<path d="M36.3072 17.43H5.69385V37.1117H36.3072V17.43Z" fill="#D8D8D8"/>
<path d="M26.7051 18.34H14.7935C14.7935 17.6866 14.9101 17.0683 15.1201 16.485C15.9251 14.14 18.1418 12.46 20.7435 12.46C23.3451 12.46 25.5851 14.1516 26.3785 16.4966C26.5768 17.0683 26.6935 17.6866 26.6935 18.34H26.7051Z" fill="#1A7BFF"/>
<path d="M37.1236 15.4584C36.0503 13.93 34.2653 12.9384 32.2586 12.9384C29.6453 12.9384 27.4169 14.63 26.6353 16.975C26.4369 17.5467 26.3203 18.165 26.3203 18.8184H3.78027V18.8884C3.78027 22.1784 6.45194 24.8384 9.73027 24.8384C12.3436 24.8384 14.5603 23.1584 15.3653 20.8134C16.1703 23.1467 18.3869 24.8384 20.9886 24.8384C23.5903 24.8384 25.8303 23.1467 26.6236 20.8017C27.4169 23.1467 29.6336 24.8384 32.2469 24.8384C35.5369 24.8384 38.1969 22.1667 38.1969 18.8884V18.8067L37.1119 15.4584H37.1236Z" fill="#C30000"/>
<path d="M8.16694 4.88831H33.8336L37.1236 15.2366L38.2203 18.8066H3.78027V18.795L4.86527 15.26L8.16694 4.88831Z" fill="#F00000"/>
<path d="M20.9999 28.035C22.8783 28.035 24.4066 29.5634 24.4066 31.4417V37.1117H17.5933V31.4417C17.5933 29.5634 19.1216 28.035 20.9999 28.035Z" fill="#B3B3B3"/>
</svg>
