<svg width="42" height="42" viewBox="0 0 42 42" fill="none" xmlns="http://www.w3.org/2000/svg">
<g clip-path="url(#clip0_8286_17302)">
<path d="M26.1919 39.1234H15.2603L16.1703 34.4333H25.2819L26.1919 39.1234Z" fill="#FF5A08"/>
<path d="M37.7376 8.71932L28.7446 15.0162L29.9157 16.6887L38.9086 10.3918L37.7376 8.71932Z" fill="#FF5A08"/>
<path d="M34.9205 5.97689L27.8638 14.3868L29.4278 15.6991L36.4845 7.28925L34.9205 5.97689Z" fill="#FF5A08"/>
<path d="M20.7321 36.895C11.2121 36.895 3.48877 29.16 3.48877 19.6167L3.5121 17.8317H37.9871L37.9638 19.6167C37.9638 29.16 30.2404 36.895 20.7204 36.895H20.7321Z" fill="#FF5A08"/>
<path d="M25.8185 8.29993C22.0968 8.29993 18.8768 10.4466 17.3135 13.5499C16.1468 12.2783 14.4785 11.4733 12.6235 11.4733C9.1118 11.4733 6.26514 14.3199 6.26514 17.8316H35.3501C35.3501 12.5699 31.0801 8.29993 25.8185 8.29993Z" fill="#DB4D0F"/>
<path d="M20.7438 25.0883C21.749 25.0883 22.5638 24.2735 22.5638 23.2683C22.5638 22.2631 21.749 21.4483 20.7438 21.4483C19.7387 21.4483 18.9238 22.2631 18.9238 23.2683C18.9238 24.2735 19.7387 25.0883 20.7438 25.0883Z" fill="#DB4D0F"/>
</g>
<defs>
<clipPath id="clip0_8286_17302">
<rect width="42" height="42" fill="white"/>
</clipPath>
</defs>
</svg>
