<svg width="42" height="42" viewBox="0 0 42 42" fill="none" xmlns="http://www.w3.org/2000/svg">
<path d="M5.3374 17.8888L5.42684 20.0576L5.61689 24.4064L6.2094 37.9H35.779L36.3715 24.4064L36.5615 20.0576L36.6622 17.8888H5.3374Z" fill="#F00000"/>
<path d="M23.5155 20.6053H18.4847C17.5833 20.6053 16.8525 21.3361 16.8525 22.2375C16.8525 23.139 17.5833 23.8697 18.4847 23.8697H23.5155C24.4169 23.8697 25.1477 23.139 25.1477 22.2375C25.1477 21.3361 24.4169 20.6053 23.5155 20.6053Z" fill="#C30000"/>
<path d="M24.2642 10.2644V7H17.7354V10.2644C13.7108 11.1029 5.3374 14.5461 5.3374 17.8888H36.651C36.651 14.5573 28.2776 11.114 24.253 10.2644H24.2642Z" fill="#C30000"/>
<path d="M5.6171 24.4064H3.16881C1.97261 24.4064 1 23.4337 1 22.2264C1 21.6227 1.24595 21.0861 1.63723 20.6948C2.02851 20.3035 2.5763 20.0576 3.16881 20.0576H5.42705L5.6171 24.4064Z" fill="#C30000"/>
<path d="M41.0004 22.2264C41.0004 22.8301 40.7544 23.3778 40.3631 23.7691C39.9718 24.1604 39.4241 24.4064 38.8315 24.4064H36.3721L36.5621 20.0576H38.8315C40.0277 20.0576 41.0004 21.0302 41.0004 22.2264Z" fill="#C30000"/>
</svg>
