<svg width="42" height="42" viewBox="0 0 42 42" fill="none" xmlns="http://www.w3.org/2000/svg">
<path d="M28.4434 11.0483V15.3533H35.595V23.8817H28.4434V28.1983H35.595H39.9117V23.8817V15.3533V12.9383V11.0483H28.4434Z" fill="#E58C17"/>
<path d="M32.7017 4.88831H5.47168V37.1116H32.7017V4.88831Z" fill="#FEAA00"/>
<path d="M15.8783 14.315C15.8783 13.3743 15.1157 12.6117 14.175 12.6117C13.2343 12.6117 12.4717 13.3743 12.4717 14.315V25.4334C12.4717 26.3741 13.2343 27.1367 14.175 27.1367C15.1157 27.1367 15.8783 26.3741 15.8783 25.4334V14.315Z" fill="#E58C17"/>
<path d="M25.7133 14.315C25.7133 13.3743 24.9507 12.6117 24.01 12.6117C23.0692 12.6117 22.3066 13.3743 22.3066 14.315V25.4334C22.3066 26.3741 23.0692 27.1367 24.01 27.1367C24.9507 27.1367 25.7133 26.3741 25.7133 25.4334V14.315Z" fill="#E58C17"/>
<path d="M32.7017 32.8066H5.47168V37.1233H32.7017V32.8066Z" fill="#E58C17"/>
</svg>
