<svg width="42" height="42" viewBox="0 0 42 42" fill="none" xmlns="http://www.w3.org/2000/svg">
<path d="M24.6287 34.65C33.1145 34.65 39.9937 28.5387 39.9937 21C39.9937 13.4613 33.1145 7.34998 24.6287 7.34998C16.1428 7.34998 9.26367 13.4613 9.26367 21C9.26367 28.5387 16.1428 34.65 24.6287 34.65Z" fill="#0C85F2"/>
<path d="M31.8268 20.545C32.832 20.545 33.6468 19.7301 33.6468 18.725C33.6468 17.7198 32.832 16.905 31.8268 16.905C30.8217 16.905 30.0068 17.7198 30.0068 18.725C30.0068 19.7301 30.8217 20.545 31.8268 20.545Z" fill="#1B6A9B"/>
<path d="M25.8885 25.515C23.6952 25.515 21.9102 23.38 21.9102 20.7433C21.9102 18.1067 23.6952 15.9717 25.8885 15.9717" fill="#1B6A9B"/>
<path d="M14.5368 21C14.5368 27.9767 9.4735 33.635 6.13684 33.635C2.80017 33.635 2.00684 27.9767 2.00684 21C2.00684 14.0233 2.80017 8.36499 6.13684 8.36499C9.4735 8.36499 14.5368 14.0233 14.5368 21Z" fill="#0C85F2"/>
</svg>
