<svg width="42" height="42" viewBox="0 0 42 42" fill="none" xmlns="http://www.w3.org/2000/svg">
<g clip-path="url(#clip0_8282_16282)">
<path d="M3.06831 37.3066L38.9316 37.3066V32.7683L3.06831 32.7683V37.3066Z" fill="#129B60"/>
<path d="M23.3216 14.3116C22.5866 14.2066 21.8283 14.1483 21.0583 14.1483C20.2883 14.1483 19.5299 14.2066 18.7833 14.3116C10.6516 15.42 4.38661 22.4783 4.38661 31.0183L4.36328 32.7566H37.7066L37.7299 31.0183C37.7299 22.4783 31.4533 15.42 23.3216 14.3116Z" fill="#14C37E"/>
<path d="M26.2732 8V11.64H23.3215V14.3117C22.5865 14.2067 21.8282 14.1483 21.0582 14.1483C20.2882 14.1483 19.5299 14.2067 18.7832 14.3117V11.64H15.8315V8H26.2732Z" fill="#129B60"/>
<path d="M29.3067 20.6067C28.7701 20.6067 28.2451 20.315 27.9884 19.8017C27.4867 18.81 26.1917 17.97 25.3167 17.795C24.5117 17.6433 23.9867 16.8733 24.1384 16.0567C24.2901 15.2517 25.0601 14.7267 25.8767 14.8783C27.7667 15.2283 29.7617 16.7333 30.6367 18.4483C31.0101 19.1833 30.7184 20.07 29.9951 20.4433C29.7734 20.5483 29.5517 20.6067 29.3184 20.6067H29.3067Z" fill="#129B60"/>
</g>
<defs>
<clipPath id="clip0_8282_16282">
<rect width="42" height="42" fill="white"/>
</clipPath>
</defs>
</svg>
